<?xml version="1.0" standalone="no"?>
<!DOCTYPE svg PUBLIC "-//W3C//DTD SVG 20010904//EN"
 "http://www.w3.org/TR/2001/REC-SVG-20010904/DTD/svg10.dtd">
<svg version="1.0" xmlns="http://www.w3.org/2000/svg"
 width="183.000000pt" height="172.000000pt" viewBox="0 0 183.000000 172.000000"
 preserveAspectRatio="xMidYMid meet">

<g transform="translate(0.000000,172.000000) scale(0.100000,-0.100000)"
fill="#000000" stroke="none">
<path d="M743 1706 c-296 -57 -525 -224 -653 -478 -65 -130 -85 -220 -84 -378
1 -151 17 -216 84 -355 248 -511 940 -654 1393 -288 133 107 241 271 289 439
18 65 22 104 23 219 0 110 3 142 15 151 12 10 10 17 -11 45 -14 19 -50 86 -81
149 -95 193 -224 323 -413 415 -49 24 -128 54 -175 65 -110 27 -290 34 -387
16z m675 -292 c36 -25 30 -96 -14 -180 -120 -228 -173 -339 -197 -414 -17 -53
-35 -90 -47 -98 -17 -10 -20 -10 -20 5 0 22 76 242 154 445 56 146 69 208 43
208 -23 0 -122 -111 -187 -211 -106 -160 -164 -296 -211 -487 -10 -44 -32 -63
-51 -44 -6 6 -14 84 -19 184 -4 95 -15 209 -23 252 -14 73 -14 81 1 98 22 24
39 23 48 -4 4 -13 10 -115 14 -228 4 -129 10 -198 15 -185 5 11 28 68 52 126
89 222 185 387 271 470 78 76 127 94 171 63z m-629 -40 c37 -31 38 -35 10 -52
-18 -12 -24 -11 -43 7 -12 12 -30 21 -39 21 -31 0 -84 -59 -116 -130 -18 -38
-41 -75 -52 -80 -17 -9 -16 -4 8 52 56 132 122 208 180 208 12 0 35 -12 52
-26z m-403 -321 c14 -23 14 -26 -3 -39 -15 -11 -19 -11 -28 3 -5 8 -20 28 -33
43 -16 20 -19 30 -10 33 20 6 56 -13 74 -40z m116 -270 c-2 -76 -9 -146 -14
-157 -18 -33 -36 3 -59 114 l-21 104 23 18 c17 15 24 16 30 6 7 -10 9 -10 9 1
0 11 27 51 34 51 1 0 0 -62 -2 -137z m659 -340 c12 -58 41 -103 69 -103 10 0
32 12 49 26 17 14 31 21 31 15 0 -20 -45 -61 -76 -70 -60 -17 -106 27 -126
121 -11 55 -11 57 13 77 21 17 24 18 27 3 1 -9 7 -40 13 -69z"/>
</g>
</svg>
